<svg xmlns="http://www.w3.org/2000/svg" width="78" height="78" viewBox="0 0 78 78"><defs><style>.a{fill:#4d0506;}</style></defs><g transform="translate(0 0)"><path class="a" d="M77.087.059a1.3,1.3,0,0,0-1.621.83c-.981,2.943-8.3,4.646-16.785,6.618-11.006,2.559-24.7,5.743-35.95,13.479C16.755,24.571-1.211,35.37,8.753,55.506,4.381,61.292,0,67.361,0,76.7a1.3,1.3,0,0,0,2.3.832l6.5-7.8a1.293,1.293,0,0,0,.281-.6A63.447,63.447,0,0,1,11.945,58.55c1.073.045,2.148.112,3.2.193,1.6.122,3.2.244,4.8.244,5.988,0,11.829-1.727,16.363-11.7C41,35.546,48.038,31.853,55.488,27.943c8.588-4.508,17.469-9.168,22.459-26.279a1.3,1.3,0,0,0-.86-1.6ZM6.583,68.33,2.9,72.746a29.5,29.5,0,0,1,5.79-12.789A67.532,67.532,0,0,0,6.583,68.33ZM55.5,25l-2.921-1.46a1.3,1.3,0,0,0-1.163,2.326l1.253.627a41.562,41.562,0,0,0-12.133,8.816A16.741,16.741,0,0,1,33.864,36.4a1.286,1.286,0,0,0-1.334,1.3A1.311,1.311,0,0,0,33.924,39a26.658,26.658,0,0,0,3.941-.262,38.829,38.829,0,0,0-3.749,7.06c-3.374,2.181-5.586,2.3-9.417,2.3a1.3,1.3,0,0,0,0,2.6,20.216,20.216,0,0,0,7.346-.944c-4.644,7.308-10.285,6.885-16.7,6.394-.787-.06-1.59-.115-2.4-.162C20.516,38.07,36.7,25.03,62.844,15.522a1.3,1.3,0,0,0-.889-2.444C38.808,21.5,23.235,32.659,14.349,47.458a1.365,1.365,0,0,0-.077.119,56.112,56.112,0,0,1-3.753,5.584C7.933,47.321,7.976,42.406,9.4,38.321a14.136,14.136,0,0,0,1.119,3.829,1.3,1.3,0,1,0,2.356-1.1,16.726,16.726,0,0,1-1.191-7.237,32.574,32.574,0,0,1,8.889-8.407A14.307,14.307,0,0,0,18.2,32.5a1.3,1.3,0,1,0,2.6,0c0-1.036.437-4.876,5.95-11a80.429,80.429,0,0,1,19.007-8.017l-.12.24a1.3,1.3,0,1,0,2.326,1.163l1.178-2.356c3.517-.946,6.94-1.745,10.129-2.487,6.12-1.423,11.2-2.6,14.551-4.3C69.292,17.242,62.613,21.239,55.5,25Z" transform="translate(0 0)"/></g></svg>