<svg xmlns="http://www.w3.org/2000/svg" width="58.981" height="24.576" viewBox="0 0 58.981 24.576"><defs><style>.a{fill:#fffbfc;}</style></defs><g transform="translate(0 -35)"><path class="a" d="M58.693,57.9l-6.312-6.312A10.726,10.726,0,0,0,54.016,46.8h2.016a.983.983,0,0,0,0-1.966H54.016a10.81,10.81,0,0,0-21.085-2.241A4.9,4.9,0,0,0,29.49,40.9a4.9,4.9,0,0,0-3.44,1.691A10.81,10.81,0,0,0,4.965,44.83H2.949a.983.983,0,0,0,0,1.966H4.965A10.726,10.726,0,0,0,6.6,51.585L.288,57.9a.983.983,0,1,0,1.39,1.39l6.133-6.133a10.8,10.8,0,0,0,18.73-7.341,3.572,3.572,0,0,1,2.949-2.949,3.572,3.572,0,0,1,2.949,2.949,10.8,10.8,0,0,0,18.73,7.341L57.3,59.287a.983.983,0,1,0,1.39-1.39ZM15.728,54.66a8.847,8.847,0,1,1,8.847-8.847,8.847,8.847,0,0,1-8.847,8.847Zm27.524,0A8.847,8.847,0,1,1,52.1,45.813a8.847,8.847,0,0,1-8.847,8.847Z"/><path class="a" d="M15.883,50.915a4.9,4.9,0,0,1-4.847-4.1.983.983,0,0,0-1.939.325,6.858,6.858,0,0,0,6.786,5.736.983.983,0,0,0,0-1.966Z" transform="translate(-0.154 -0.187)"/><path class="a" d="M43.883,50.915a4.9,4.9,0,0,1-4.847-4.1.983.983,0,0,0-1.939.325,6.858,6.858,0,0,0,6.786,5.736.983.983,0,0,0,0-1.966Z" transform="translate(-0.63 -0.187)"/></g></svg>