<svg xmlns="http://www.w3.org/2000/svg" width="124" height="118" viewBox="0 0 124 118"><defs><style>.a{fill:#4d0506;}</style></defs><g transform="translate(0 -3)"><path class="a" d="M122.728,117.019,98.449,106.885l-5.272-7.04,1.816-7.278a2.094,2.094,0,0,0,.057-.814l0-.007v0l0-.007v-.012l0-.006v-.006l0-.007a2.058,2.058,0,0,0-.793-1.335h0c-.022-.005-.006,0-.006,0l0,0-5.291-3.975,5.7-7.618a2.076,2.076,0,0,0,.283-1.969L89.1,61.224l.908-.607a2.071,2.071,0,0,0,.573-2.871l-3.368-5.062,3.368-5.062a2.075,2.075,0,0,0-.1-2.441l-6.67-8.351,5.98-3a2.07,2.07,0,0,0,1.142-1.852v-4.2l20.059,6.182a2.068,2.068,0,0,0,2.359-3.075L103.018,14.324a2.065,2.065,0,0,0-1.752-.973H89.492l-4.759-3.178V5.07a2.068,2.068,0,0,0-2.721-1.964l-12.4,4.14a2.067,2.067,0,0,0-1.227,1.108L58.6,29.912h-4.87a2.07,2.07,0,0,0-1.786,1.027L37.481,55.781a2.074,2.074,0,0,0,.325,2.507l3.017,3.022L33.339,74.429a2.073,2.073,0,0,0-.054,1.953l3.387,6.784L27.642,90.4a2.072,2.072,0,0,0-.557,2.542l3.562,7.136-5.1,6.8L1.272,117.019a2.071,2.071,0,0,0,.8,3.981H121.933a2.071,2.071,0,0,0,.8-3.981ZM34.1,102.368H89.9l3.1,4.14H31ZM87.182,67.883l-4.253,2.84L79.71,67.5l5.862-3.915ZM63.239,65.52l-7.825-5.879-3.947-9.226,9.352,4.016,12,12.024L60.515,71.591l2.947-2.952a2.073,2.073,0,0,0-.222-3.119ZM54.92,34.053h5.013a2.063,2.063,0,0,0,1.881-1.214l9.96-21.95L80.6,7.942v3.339A2.07,2.07,0,0,0,81.521,13l6.2,4.14a2.066,2.066,0,0,0,1.146.348H100.12l6.789,10.88L85.341,21.724a2.069,2.069,0,0,0-1.215,3.956L86.8,26.5v4.2l-7.124,3.568a2.074,2.074,0,0,0-.69,3.145l7.324,9.169-3.3,4.951a2.075,2.075,0,0,0,0,2.3L86,58.321,76.73,64.512,63.461,51.221a2.053,2.053,0,0,0-.648-.439L48.7,44.725Zm-14.362,51.3a2.072,2.072,0,0,0,.557-2.542l-3.639-7.29,7.718-13.529a2.071,2.071,0,0,0-.333-2.491l-3.007-3.012L46.3,48.851l5.532,12.93a2.052,2.052,0,0,0,.66.84L58.854,67.4l-8.648,8.663a2.069,2.069,0,0,0,2.256,3.374l23.522-9.818,5.222,5.23a2.064,2.064,0,0,0,2.608.259l4.859-3.245,1.995,5.328L85.642,83.9l-7.937-5.962a2.058,2.058,0,0,0-1.239-.414h-6.2a2.068,2.068,0,0,0-.8.16l-24.8,10.351a2.07,2.07,0,0,0,.955,3.975l26.582-2.048,18.261,3.658L89.32,98.228H34.344l-2.815-5.639ZM84.471,88.2l-11.732-2.35a2.03,2.03,0,0,0-.406-.04c-.052,0-.1,0-.159.006L58.157,86.894,70.68,81.667h5.1ZM12.4,116.86l14.879-6.211H96.721L111.6,116.86Z" transform="translate(0)"/></g></svg>