<svg xmlns="http://www.w3.org/2000/svg" width="78" height="78" viewBox="0 0 78 78"><defs><style>.a{fill:#4d0506;}</style></defs><g transform="translate(0)"><path class="a" d="M77.814,46.131l-11.7-19.5a1.351,1.351,0,0,0-2.229,0L62.4,29.107V22.1h1.3a1.3,1.3,0,0,0,1.233-1.711l-6.5-19.5a1.3,1.3,0,0,0-2.465,0l-6.5,19.5A1.3,1.3,0,0,0,50.7,22.1H52V40.3H45.5V21.05l2.507-6.267A1.31,1.31,0,0,0,48.1,14.3V5.2a1.3,1.3,0,1,0-2.6,0V7.8H42.9V5.2a1.3,1.3,0,1,0-2.6,0V7.8H37.7V5.2a1.3,1.3,0,1,0-2.6,0V7.8H32.5V5.2a1.3,1.3,0,1,0-2.6,0v9.1a1.31,1.31,0,0,0,.093.483L32.5,21.05V40.3H26V22.1h1.3a1.3,1.3,0,0,0,1.233-1.711l-6.5-19.5a1.3,1.3,0,0,0-2.465,0l-6.5,19.5A1.3,1.3,0,0,0,14.3,22.1h1.3v7.007l-1.485-2.476a1.351,1.351,0,0,0-2.229,0l-11.7,19.5A1.3,1.3,0,0,0,1.3,48.1H3.9V76.7A1.3,1.3,0,0,0,5.2,78H72.8a1.3,1.3,0,0,0,1.3-1.3V48.1h2.6a1.3,1.3,0,0,0,1.115-1.969ZM65,29.827,71.283,40.3H58.716ZM59.8,27.3v2.6H54.6V27.3Zm-5.2-2.6V22.1h5.2v2.6Zm5.2,7.8v.94l-5.2,8.667V32.5ZM57.2,5.411,61.9,19.5H52.5ZM32.5,10.4h13V13h-13Zm2.6,24.7v-13h7.8v13Zm7.8,2.6v2.6H35.1V37.7ZM34.68,19.5l-1.56-3.9H44.88l-1.56,3.9ZM20.8,5.411,25.5,19.5H16.1ZM18.2,29.9V27.3h5.2v2.6Zm5.2,2.6v9.607L18.2,33.44V32.5Zm-5.2-7.8V22.1h5.2v2.6ZM13,29.827,19.284,40.3H6.716ZM3.6,45.5l1.56-2.6H20.843l1.56,2.6ZM19.5,75.4H14.3V71.5a1.3,1.3,0,1,0-2.6,0v3.9H6.5V48.1h13Zm2.6-2.6h7.989c-.081.816-.144,1.669-.171,2.6H22.1Zm10.421,2.6c.166-5.615,1.494-11.7,6.479-11.7s6.313,6.085,6.479,11.7Zm23.379,0H48.082c-.027-.931-.09-1.784-.171-2.6H55.9Zm0-5.2H47.531c-1.517-7.742-5.776-9.1-8.531-9.1s-7.015,1.358-8.532,9.1H22.1V48.1h2.6a1.286,1.286,0,0,0,.449-.091c.037-.014.07-.027.105-.044a1.288,1.288,0,0,0,.355-.24l.01-.008a1.3,1.3,0,0,0,.21-.276c.016-.028.022-.06.036-.089s.03-.072.044-.109A1.3,1.3,0,0,0,26,46.824c0-.008,0-.015,0-.024V42.9H52v3.9c0,.009,0,.016,0,.024a1.3,1.3,0,0,0,.085.419c.014.038.027.073.044.109s.02.06.036.089a1.3,1.3,0,0,0,.21.276l.01.008a1.293,1.293,0,0,0,.355.24c.035.017.069.031.105.044a1.284,1.284,0,0,0,.449.091h2.6Zm15.6,5.2H66.3V71.5a1.3,1.3,0,1,0-2.6,0v3.9H58.5V48.1h13ZM55.6,45.5l1.56-2.6H72.843l1.56,2.6Z" transform="translate(0 0)"/><path class="a" d="M8.317,49.533h5.267A1.316,1.316,0,0,0,14.9,48.217C14.9,43.629,13.678,39,10.95,39S7,43.629,7,48.217a1.316,1.316,0,0,0,1.317,1.317Zm2.633-7.782A10.674,10.674,0,0,1,12.229,46.9H9.671a10.674,10.674,0,0,1,1.279-5.148Z" transform="translate(2.217 11.6)"/><path class="a" d="M48.317,49.533h5.267A1.316,1.316,0,0,0,54.9,48.217C54.9,43.629,53.678,39,50.95,39S47,43.629,47,48.217a1.316,1.316,0,0,0,1.317,1.317Zm2.633-7.782A10.674,10.674,0,0,1,52.229,46.9H49.671a10.674,10.674,0,0,1,1.279-5.148Z" transform="translate(13.883 11.6)"/><path class="a" d="M30.317,19A1.316,1.316,0,0,0,29,20.317v1.317a1.317,1.317,0,1,0,2.633,0V20.317A1.316,1.316,0,0,0,30.317,19Z" transform="translate(8.683 5.683)"/><path class="a" d="M22.95,39C20.222,39,19,43.629,19,48.217a1.316,1.316,0,0,0,1.317,1.317h5.267A1.316,1.316,0,0,0,26.9,48.217C26.9,43.629,25.679,39,22.95,39Zm-1.279,7.9a10.674,10.674,0,0,1,1.279-5.148A10.674,10.674,0,0,1,24.229,46.9Z" transform="translate(5.665 11.6)"/><path class="a" d="M30.95,35C28.222,35,27,39.629,27,44.217a1.316,1.316,0,0,0,1.317,1.317h5.267A1.316,1.316,0,0,0,34.9,44.217C34.9,39.629,33.679,35,30.95,35Zm-1.279,7.9a10.674,10.674,0,0,1,1.279-5.148A10.674,10.674,0,0,1,32.229,42.9Z" transform="translate(8.05 10.41)"/><path class="a" d="M38.95,39C36.222,39,35,43.629,35,48.217a1.316,1.316,0,0,0,1.317,1.317h5.267A1.316,1.316,0,0,0,42.9,48.217C42.9,43.629,41.679,39,38.95,39Zm-1.279,7.9a10.674,10.674,0,0,1,1.279-5.148A10.674,10.674,0,0,1,40.229,46.9Z" transform="translate(10.435 11.6)"/></g></svg>