<?xml version="1.0" encoding="utf-8"?>
<!-- Generator: Adobe Illustrator 19.0.0, SVG Export Plug-In . SVG Version: 6.00 Build 0)  -->
<svg version="1.1" id="Warstwa_1" xmlns="http://www.w3.org/2000/svg" xmlns:xlink="http://www.w3.org/1999/xlink" x="0px" y="0px"
	 viewBox="0 0 109.4 109.7" style="enable-background:new 0 0 109.4 109.7;" xml:space="preserve">
<style type="text/css">
	.st0{fill:#FFFFFF;}
</style>
<path id="XMLID_22_" class="st0" d="M42.7,101c30.2,0.1,54.8-24.1,54.9-53.8"/>
<path id="XMLID_21_" d="M109.4,55.9c-0.1,29.7-24.8,53.9-54.9,53.8"/>
<path id="XMLID_18_" d="M54.5,109.7C24.3,109.6-0.1,85.1,0,54.8C0.1,24.2,24.9-0.1,55.9,0c29.6,0.1,53.6,25.2,53.5,55.9"/>
<path id="XMLID_19_" d="M106.1,54.7c0-28.4-23.1-51.5-51.4-51.4C26.1,3.4,3.5,26.5,3.5,55.5c0,28,23.1,50.7,51.4,50.6"/>
<path id="XMLID_17_" d="M54.9,106.1c28.7-0.1,51.2-22.6,51.2-51.4"/>
<path id="XMLID_16_" class="st0" d="M106.1,54.7c0,28.8-22.4,51.3-51.2,51.4"/>
<path id="XMLID_14_" class="st0" d="M54.9,106.1C26.6,106.2,3.5,83.5,3.5,55.5c0-29.1,22.6-52.1,51.2-52.2
	c28.3-0.1,51.4,23,51.4,51.4"/>
<path id="XMLID_13_" class="st0" d="M27.4,80.7c0.9-1.5,1.2-2.7,1.9-3.3c3.4-2.5,3.8-5.4,1.3-8.4c-2.6-3.1-6.3-3.6-9.3-1
	c-1.8,1.5-3.9,4.8-3.4,6.6c0.9,3.2,3,7,5.7,8.6c8.7,5.2,21.4,1.4,26.7-8C59,59.9,59,44.1,51.2,28.5c-4.3-8.6-15.8-11.3-24.8-6.7
	c-9.1,4.6-13.2,16.7-9.3,27.1c2.9,7.7,12.8,14.9,21.5,9.6c0.7-0.4,1.8-0.3,2.7-0.5C45,72.6,39.2,82.7,27.4,80.7z"/>
<path id="XMLID_12_" class="st0" d="M61.5,81.2c5.1,0.3,8.4,0.5,13.1,0.8c-1.7,3.2-3,5.4-4.4,7.9c4.3,0,9.2,0,14.3,0
	c-1.6-2.3-3.7-4-3.6-5.5c0.1-1.6,2.3-3,2.7-3.5c-6.3-7.3-1.2-16.1-4-23.9c-1.4,0.3-3.9,0-4.4,0.9C70.6,65.2,66.4,72.7,61.5,81.2z"/>
<path id="XMLID_11_" class="st0" d="M78.3,31.4c-0.1-0.2-0.3-0.3-0.3-0.5c0-0.1,0.1-0.3,0.2-0.4c2.2-2.2,5.7-4.2,6.3-6.7
	c0.8-4-1.9-7.5-6.2-8.5c-4.6-1-9.5-1.4-12.6,3.3c-0.8,1.2-0.2,3.9,0.7,5.2c0.5,0.7,3.4,0.4,4.6-0.4c0.7-0.5,0.3-2.8,0.2-4.3
	c0-0.6-0.5-1.1-0.9-1.8c4.7-0.7,6.6,0.3,7.4,4.2c1,5-0.3,8.6-6.4,9.2c6.6,4.1,8.1,7.3,6,12.4c-1.4,3.5-3.8,4.4-7.5,2.9
	c1-3,4.5-6.5-1.3-7.6c-1.2-0.2-3.9,1.7-3.8,2.5c0.1,2,0.9,4.6,2.3,5.9c4.5,3.9,14,2.2,17.1-2.8C87.1,39.1,85.3,35.3,78.3,31.4z"/>
<path id="XMLID_8_" d="M27.4,80.7C39.2,82.7,45,72.6,41.3,58c-0.9,0.1-2,0-2.7,0.5c-8.7,5.2-18.6-2-21.5-9.6
	c-3.9-10.4,0.1-22.5,9.3-27.1c9.1-4.6,20.5-1.9,24.8,6.7C59,44.1,59,59.9,50.4,75.2c-5.3,9.4-18,13.2-26.7,8
	c-2.7-1.6-4.9-5.4-5.7-8.6c-0.5-1.8,1.6-5.1,3.4-6.6c3-2.5,6.7-2,9.3,1c2.5,3,2.1,6-1.3,8.4C28.6,78,28.3,79.2,27.4,80.7z
	 M42.5,40.3c-0.6-4.5-0.7-8.4-1.8-12.1c-0.6-1.9-2.7-4.4-4.3-4.6c-1.6-0.2-4.2,2-5,3.8c-3.5,8.1-3,16.6-0.2,24.8
	c0.5,1.6,3,3.4,4.6,3.4c1.6,0,4-2,4.5-3.5C41.5,48.1,41.8,43.9,42.5,40.3z"/>
<path id="XMLID_5_" d="M61.5,81.2c5-8.5,9.2-16,13.7-23.3c0.6-0.9,3-0.7,4.4-0.9c2.8,7.8-2.3,16.6,4,23.9c-0.4,0.5-2.6,1.9-2.7,3.5
	c-0.1,1.6,2,3.3,3.6,5.5c-5.1,0-10,0-14.3,0c1.4-2.5,2.6-4.7,4.4-7.9C69.9,81.7,66.6,81.5,61.5,81.2z M73.4,68.7
	c-0.4-0.1-0.7-0.1-1.1-0.2c-1.7,3.3-3.4,6.6-5.6,10.7c2.9-0.2,4.7-0.3,6.7-0.5C73.4,75,73.4,71.8,73.4,68.7z"/>
<path id="XMLID_4_" d="M78.3,31.4c7.1,3.9,8.8,7.7,5.7,12.6c-3.1,4.9-12.6,6.7-17.1,2.8c-1.5-1.3-2.2-3.9-2.3-5.9
	c-0.1-0.8,2.7-2.7,3.8-2.5c5.8,1.1,2.3,4.6,1.3,7.6c3.7,1.5,6.1,0.6,7.5-2.9c2.1-5.1,0.6-8.3-6-12.4c6.1-0.5,7.4-4.2,6.4-9.2
	c-0.8-3.9-2.7-4.9-7.4-4.2c0.4,0.7,0.8,1.2,0.9,1.8c0.1,1.5,0.6,3.8-0.2,4.3c-1.1,0.8-4.1,1.1-4.6,0.4c-0.9-1.3-1.5-4-0.7-5.2
	c3-4.6,8-4.3,12.6-3.3c4.3,1,7.1,4.5,6.2,8.5c-0.5,2.6-4.1,4.5-6.3,6.7c-0.1,0.1-0.2,0.3-0.2,0.4C78,31.1,78.2,31.2,78.3,31.4z"/>
<path id="XMLID_3_" class="st0" d="M42.5,40.3c-0.6,3.6-1,7.8-2.2,11.8c-0.5,1.6-2.9,3.5-4.5,3.5c-1.6,0-4.1-1.8-4.6-3.4
	c-2.8-8.2-3.2-16.6,0.2-24.8c0.8-1.8,3.4-3.9,5-3.8c1.6,0.2,3.8,2.7,4.3,4.6C41.8,31.9,41.9,35.8,42.5,40.3z"/>
<path id="XMLID_2_" class="st0" d="M73.4,68.7c0,3.2,0,6.4,0,10.1c-2,0.1-3.8,0.3-6.7,0.5c2.2-4.1,3.9-7.4,5.6-10.7
	C72.6,68.6,73,68.6,73.4,68.7z"/>
</svg>
