<?xml version="1.0" encoding="utf-8"?>
<!-- Generator: Adobe Illustrator 19.0.0, SVG Export Plug-In . SVG Version: 6.00 Build 0)  -->
<svg version="1.1" id="Warstwa_1" xmlns="http://www.w3.org/2000/svg" xmlns:xlink="http://www.w3.org/1999/xlink" x="0px" y="0px"
	 viewBox="0 0 138.9 151.1" style="enable-background:new 0 0 138.9 151.1;" xml:space="preserve">
<style type="text/css">
	.st0{fill:#FFFFFF;}
</style>
<path id="XMLID_70_" class="st0" d="M-369.3,199.9"/>
<path id="XMLID_10_" class="st0" d="M-272.3,211.6"/>
<path id="XMLID_9_" class="st0" d="M392.5,211.6"/>
<path id="XMLID_432_" d="M116.7,14.3c2.6,1.1,5.2,2.4,7.9,3.4c7.9,3,9.6,11,3.5,17c-3.1,3-6.9,5.5-11.6,7.5c0.9-1.8,1.4-3.9,2.7-5.3
	c1.6-1.9,4.3-2.9,5.6-5c1.2-1.9,1.1-4.7,1.6-7c-2.5,0-5.7-1-7.2,0.1c-7.5,5.7-8.1,14.2-7.4,22.6c1.4,16,8.9,29,20.6,39.7
	c8.8,8.1,8.6,8,1,17c-4.3,5.2-8.3,10.7-12.8,16.6c-5.5-5.8-8.7-1.3-13,2.5c-4,3.6-9,6.7-14,8.6c-8.1,3-15.2,6.6-19.2,14.8
	c-0.8,1.6-2.3,2.7-3.6,4.2c-1-0.8-1.7-1.1-1.9-1.6c-3.1-9.8-11.4-13.3-19.9-17.1c-7.5-3.4-14.4-7.9-22.3-12.3
	c-4.4,4.3-6.5,1.1-9.1-4.1c-1.9-3.7-5.9-6.5-9.1-9.5c-2.6-2.5-5.5-4.8-8.5-7.5c3.7-4.4,6.8-8.6,10.4-12.4
	c9.8-10.5,15.1-23.1,16.2-37.1c0.5-6.1-2.1-12.7-4.5-18.7c-1.5-3.9-5.6-5.7-10.6-4.5c-1.6,5.2,0.6,8.6,5.1,11.4
	c2.4,1.4,4.4,3.4,6.2,5.7c-11.7-2.1-16.7-6.4-17-14.2c-0.2-5,1.7-7.9,6.9-10.5c5.5-2.7,10.4-7.9,13.7-13.2c3-4.8,5.7-5.9,10.2-3.7
	c2.2,1.1,4.5,2.5,6.1,4.3c4.8,5.2,10.4,8.6,17.5,9.5c0.4,0,0.9,0,1.1,0.3c4.5,3.8,9,7.6,13.5,0c0.1-0.2,0.7-0.3,1.1-0.2
	c9.5,1.9,14.4-4.5,19.8-10.5c6.3-7,11-6.7,14.2,0.1C99,4.5,93.9,13.8,86.4,19c2.3-0.4,4.3-1.3,6.5-2c5.7-1.9,10.6-0.4,13.1,4.2
	c2.9,5.2,1.7,11.5-3.4,14.9c-2.8,1.9-6.2,3-9.3,4.7c-2.6,1.4-5,3.1-7.5,4.7c0.9-0.4,1.7-0.8,2.6-1.1c1.6,1.9,3.3,3.9,4.9,5.7
	c2.2-2.9,6.1-6.9,13.1-4.6c-1-11.9,2.3-21.7,12.9-28.1C118.1,16,117.4,15.2,116.7,14.3z M93.2,102.9c0.6,5.8,2.4,10.7,1.3,14.8
	c-1.2,4.4-5.2,8-7.6,11.6c3.4-2.3,9.7-2,9.4-9.6c-0.1-2.3,2.4-4.7,3.7-7.1c0.8,0.3,1.7,0.6,2.5,0.9c-0.7,3.2-1.4,6.3-2.4,10.5
	c3.7-3.7,6.9-6.7,10-9.8c-0.1-0.2-0.3-0.5-0.4-0.7c-1.4,0.5-2.9,0.9-5.1,1.6c1.6-8.6,3-16.5,4.1-22.5c3.4,4.8,8.1,11.3,12.8,17.9
	c4.6-6.6,4.5-13.1,2.4-19.6c-2.3-6.9-4.7-13.9-10.2-18.2c-2.4,4.7-4.5,8.7-6.6,12.8c-2.9-7.6-2.9-7.7-13.8-10.8
	c-1.4-0.4-3.3,1.1-3.6,1.2c2.1,2.6,5.7,5,5.6,7.2c-0.3,6.3-6,9.3-13.9,8.4c-4,10,0.6,19.2,2.3,30.4C86.9,115.2,89.6,110,93.2,102.9z
	 M34.4,28.8c0.4-0.1,0.7-0.2,1.1-0.3c-0.8-3-1.7-6-2.5-9c0.8-0.3,1.6-0.6,2.4-0.8c0.9,2.3,2.7,4.7,2.5,7c-0.3,4.4-1.4,8.8-2.9,12.9
	c-1.6,4.4-1.9,8.6,0.3,12.8c1.5,2.9,1.7,5.3-1.6,7.4c-3.9,2.5-1.7,5.9-0.2,8.6c0.5,0.9,3.2,0.6,4.8,0.9c0.1-0.4,0.2-0.8,0.3-1.2
	c-1.2-1-2.3-1.9-4-3.3c2.3-1.5,4.1-2.7,4.5-2.9c4.2,3.3,7.6,5.9,11,8.6c0.7-0.6,1.4-1.2,2-1.7c-5-1.7-8.9-3.9-4.3-9
	c0.4-0.4,0.2-1.6-0.1-2.2c-2.3-4.2,0.3-6.7,2-8.7c5.4,0.8,10,1.5,14.5,2.2c0.1-0.7,0.2-1.4,0.4-2c-2.7-0.8-5.4-1.6-9.1-2.8
	c2.5-1.7,4.3-3,6.5-4.6c-2.1-2-4-3.8-6.2-5.8c1.3-0.4,2.5-0.7,5.2-1.5c-7.3-1.9-0.9-3.1-1.4-4.5c-1.7-1.4-2.6-3.2-4-4.5
	c-1.7-1.5-3.8-3.2-5.7-3.3c-1.6,0-4.4,2-4.7,3.5c-1,4.3-1.1,8.9-1.5,13.4c0.5,0,1,0,1.5,0.1c-2.6,3.4-5.3,6.8-7.9,10.2
	c-0.9-0.4-1.7-0.8-2.6-1.2c1.3-4.6,3.1-9.2,3.8-13.9c0.6-4.4,0.4-9-0.4-13.3c-0.2-1-4-1.4-6.2-2c-0.1,1.8-0.7,3.8-0.3,5.5
	C32.2,25.1,33.5,26.9,34.4,28.8z M51.1,73.8c-8-0.4-14.7-1-21.5-1.1c-1.4,0-3.4,0.8-4.2,2c-2.4,3.5-4.4,7.2-6.5,10.8
	c5.8,4.7,6.1,4.5,10.6-3.1c2.3-3.9,5-8.4,10.1-7.2c3.4,0.8,6.1,4.3,10,7.3c-3.9,2.1-6.2,3.4-9.5,5.2C57.3,94.5,65.2,107,66,124.1
	c-0.6,0.5-1.1,1-1.7,1.5c-1.6-2.1-3.3-4.1-5.7-7.2c1,3.5,1.5,5.7,2.3,8.4c-1.5,0.9-3.1,2-4.7,3c4.7,3.1,8.6,5.7,13,8.6
	c0-8.5,0-16.5,0-24.4c0-8.1,0-16.1,0-25.2c-4.1,1.2-7.2,2.3-10.3,2.9c-2.6,0.4-6.6,1.1-7.8-0.2c-1.6-1.8-1.5-5.5-1.5-8.4
	C49.5,80.3,50.4,77.5,51.1,73.8z M55.9,53.4c2,11.4,3.5,22.7,0.8,34.6c2-0.4,4.6-1,6.8-1.4c0-6.2,0-11.6,0-16.7
	c4.7,0.2,8.8,0.4,14,0.7c-0.9,5.6-1.8,10.8-2.7,16.4c2.6,0,5.9,0,9.4,0C82,79.8,78.8,72.8,84.8,67c-1.3-1.1-3.3-2-3.5-3
	c-0.4-3.6-0.8-7.6,3.8-10.3c-4,0-8,0-10.5,0c0.7,4,1.4,8.1,2.1,12.5c-5.1-1.1-9.1-2-14.1-3c0.8-2.7,1.9-6.1,3-9.7
	C62.6,53.4,59,53.4,55.9,53.4z M78.1,32.6c-0.5-0.6-1.1-1.1-1.6-1.7c1.4-3.3,2.9-6.7,4.3-10.1c-4.9-0.1-9.8,0.8-10.4,6.5
	c-0.7,7.6-0.2,15.3-0.2,23.3c2.6-0.2,4.5-0.4,6.3-0.6C78,43.6,81,39.6,87.3,36.2c3.7-2,7.9-3.3,11.3-5.6c1.3-0.9,2-3.9,1.5-5.6
	c-0.3-1-3.6-2.3-5-1.8c-2.6,0.9-4.8,3.1-7.3,4.5C84.7,29.5,81.4,31,78.1,32.6z M22.4,116c5-5.7,8.4-3.2,11.5,1
	c0.6,0.8,1.1,1.7,1.9,2.2c1.9,1.1,3.9,2.7,5.8,2.6c1.8-0.1,3.6-2,5.4-3c-1.5-2.1-2.8-4.2-4.4-6.2c-0.8-1-2.1-1.7-3.1-2.6
	c-6.2-5.5-13.6-5.6-20.9,0.1C19.7,111.8,20.8,113.5,22.4,116z M26.9,96.6c-4.6-2.3-8.4-4.2-13.1-6.5c-1.4,3-3.2,6.8-4.9,10.5
	c3.8,1.4,7.8,4.3,11.5,4C24.8,104.2,26.9,99.9,26.9,96.6z M43.8,81c0.2-0.6,0.3-1.1,0.5-1.7c-2.4-0.8-4.8-1.6-7.7-2.6
	c-0.3,5.4-0.1,8.8,5.4,7.3c-1.5-1-3-2.1-4.6-3.1c0.2-0.3,0.4-0.6,0.6-1C39.9,80.2,41.8,80.6,43.8,81z"/>
<path id="XMLID_402_" class="st0" d="M116.7,14.3c0.7,0.8,1.5,1.7,2.6,3c-10.6,6.4-13.9,16.2-12.9,28.1c-7-2.3-10.9,1.6-13.1,4.6
	c-1.6-1.9-3.2-3.8-4.9-5.7c-0.9,0.4-1.7,0.8-2.6,1.1c2.5-1.6,4.9-3.3,7.5-4.7c3-1.7,6.4-2.8,9.3-4.7c5.1-3.4,6.3-9.7,3.4-14.9
	c-2.5-4.5-7.4-6.1-13.1-4.2c-2.1,0.7-4.2,1.6-6.5,2C93.9,13.8,99,4.5,109.9,5.2C112.1,8.3,114.4,11.3,116.7,14.3z"/>
<path id="XMLID_366_" class="st0" d="M93.2,102.9c-3.6,7.1-6.3,12.4-9.7,18.9c-1.7-11.2-6.3-20.4-2.3-30.4c8,0.9,13.6-2.1,13.9-8.4
	c0.1-2.2-3.5-4.6-5.6-7.2c0.3-0.1,2.2-1.6,3.6-1.2c10.9,3.1,10.9,3.2,13.8,10.8c2.1-4.1,4.2-8.1,6.6-12.8
	c5.5,4.2,7.9,11.3,10.2,18.2c2.2,6.4,2.2,12.9-2.4,19.6c-4.7-6.6-9.4-13.2-12.8-17.9c-1.1,6-2.5,13.9-4.1,22.5
	c2.2-0.7,3.6-1.2,5.1-1.6c0.1,0.2,0.3,0.5,0.4,0.7c-3.2,3.1-6.3,6.2-10,9.8c0.9-4.1,1.7-7.3,2.4-10.5c-0.8-0.3-1.7-0.6-2.5-0.9
	c-1.3,2.4-3.8,4.8-3.7,7.1c0.3,7.6-6,7.3-9.4,9.6c2.5-3.6,6.4-7.2,7.6-11.6C95.7,113.6,93.9,108.7,93.2,102.9z"/>
<path id="XMLID_365_" class="st0" d="M34.4,28.8c-1-1.9-2.3-3.7-2.8-5.7c-0.4-1.7,0.2-3.7,0.3-5.5c2.2,0.7,6,1,6.2,2
	c0.8,4.4,1,9,0.4,13.3c-0.7,4.7-2.5,9.2-3.8,13.9c0.9,0.4,1.7,0.8,2.6,1.2c2.6-3.4,5.3-6.8,7.9-10.2c-0.5,0-1,0-1.5-0.1
	c0.4-4.5,0.5-9.1,1.5-13.4c0.4-1.5,3.1-3.5,4.7-3.5c2,0.1,4.1,1.8,5.7,3.3c1.4,1.3,2.3,3.1,4,4.5c0.5,1.5-5.9,2.6,1.4,4.5
	c-2.8,0.8-3.9,1.2-5.2,1.5c2.2,2,4.1,3.8,6.2,5.8c-2.3,1.6-4.1,2.9-6.5,4.6c3.7,1.1,6.4,1.9,9.1,2.8c-0.1,0.7-0.2,1.4-0.4,2
	c-4.5-0.7-9.1-1.4-14.5-2.2c-1.6,1.9-4.3,4.5-2,8.7c0.3,0.6,0.4,1.8,0.1,2.2c-4.5,5.2-0.7,7.3,4.3,9c-0.7,0.6-1.4,1.2-2,1.7
	c-3.4-2.6-6.8-5.3-11-8.6c-0.4,0.3-2.2,1.4-4.5,2.9c1.7,1.4,2.9,2.4,4,3.3c-0.1,0.4-0.2,0.8-0.3,1.2c-1.7-0.3-4.3,0-4.8-0.9
	c-1.5-2.7-3.7-6.2,0.2-8.6c3.3-2.1,3.2-4.5,1.6-7.4c-2.3-4.2-1.9-8.3-0.3-12.8c1.5-4.1,2.5-8.6,2.9-12.9c0.2-2.3-1.6-4.7-2.5-7
	c-0.8,0.3-1.6,0.6-2.4,0.8c0.8,3,1.7,6,2.5,9C35.2,28.6,34.8,28.7,34.4,28.8z"/>
<path id="XMLID_364_" class="st0" d="M51.1,73.8c-0.7,3.7-1.6,6.5-1.6,9.3c0,2.9-0.1,6.5,1.5,8.4c1.2,1.3,5.2,0.6,7.8,0.2
	c3.2-0.5,6.2-1.7,10.3-2.9c0,9,0,17.1,0,25.2c0,7.9,0,15.9,0,24.4c-4.3-2.9-8.2-5.4-13-8.6c1.6-1.1,3.2-2.1,4.7-3
	c-0.8-2.7-1.3-4.9-2.3-8.4c2.5,3.1,4.1,5.2,5.7,7.2c0.6-0.5,1.1-1,1.7-1.5c-0.8-17.1-8.7-29.6-25.9-36.4c3.4-1.8,5.7-3.1,9.5-5.2
	c-3.9-3-6.7-6.5-10-7.3c-5.1-1.2-7.8,3.3-10.1,7.2c-4.5,7.6-4.8,7.8-10.6,3.1c2.1-3.6,4.1-7.4,6.5-10.8c0.8-1.1,2.8-2,4.2-2
	C36.4,72.9,43.1,73.4,51.1,73.8z"/>
<path id="XMLID_363_" class="st0" d="M55.9,53.4c3.1,0,6.7,0,9.7,0c-1.1,3.7-2.2,7-3,9.7c5,1.1,9,1.9,14.1,3
	c-0.7-4.4-1.4-8.5-2.1-12.5c2.5,0,6.5,0,10.5,0c-4.6,2.7-4.2,6.6-3.8,10.3c0.1,1.1,2.1,1.9,3.5,3c-6,5.8-2.8,12.9-0.5,19.9
	c-3.5,0-6.8,0-9.4,0c0.9-5.6,1.8-10.9,2.7-16.4c-5.2-0.2-9.3-0.4-14-0.7c0,5.1,0,10.5,0,16.7c-2.2,0.5-4.8,1-6.8,1.4
	C59.4,76,57.9,64.8,55.9,53.4z"/>
<path id="XMLID_362_" class="st0" d="M78.1,32.6c3.3-1.6,6.6-3.1,9.8-4.9c2.5-1.4,4.7-3.6,7.3-4.5c1.4-0.5,4.7,0.7,5,1.8
	c0.5,1.7-0.2,4.7-1.5,5.6c-3.5,2.3-7.6,3.6-11.3,5.6C81,39.6,78,43.6,76.5,50.1c-1.7,0.2-3.6,0.3-6.3,0.6c0-8-0.5-15.7,0.2-23.3
	c0.5-5.7,5.5-6.6,10.4-6.5c-1.5,3.5-2.9,6.8-4.3,10.1C77,31.5,77.6,32.1,78.1,32.6z"/>
<path id="XMLID_361_" class="st0" d="M22.4,116c-1.6-2.5-2.7-4.2-3.8-5.9c7.3-5.7,14.7-5.6,20.9-0.1c1,0.9,2.3,1.5,3.1,2.6
	c1.6,2,3,4.1,4.4,6.2c-1.8,1.1-3.6,3-5.4,3c-1.9,0.1-3.9-1.5-5.8-2.6c-0.8-0.5-1.3-1.4-1.9-2.2C30.8,112.8,27.4,110.2,22.4,116z"/>
<path id="XMLID_360_" class="st0" d="M26.9,96.6c0,3.2-2,7.6-6.5,7.9c-3.7,0.3-7.7-2.5-11.5-4c1.8-3.7,3.5-7.5,4.9-10.5
	C18.5,92.5,22.2,94.3,26.9,96.6z"/>
<path id="XMLID_359_" class="st0" d="M43.8,81c-1.9-0.4-3.9-0.7-5.8-1.1c-0.2,0.3-0.4,0.6-0.6,1c1.5,1,3.1,2.1,4.6,3.1
	c-5.4,1.5-5.7-1.9-5.4-7.3c2.9,1,5.3,1.8,7.7,2.6C44.1,79.8,43.9,80.4,43.8,81z"/>
</svg>
