<svg xmlns="http://www.w3.org/2000/svg" width="59.21" height="57" viewBox="0 0 59.21 57"><defs><style>.a{fill:#f3bf1b;}</style></defs><g transform="translate(-23.426 -37.48)"><g transform="translate(23.426 52.075)"><path class="a" d="M75.82,265.529H25a1.572,1.572,0,0,1-1.572-1.572v-5.694a1.572,1.572,0,0,1,.461-1.112,21.406,21.406,0,0,1,27.572-2.281V224.7a1.572,1.572,0,1,1,3.145,0v33.566a1.572,1.572,0,0,1-2.684,1.112,18.272,18.272,0,0,0-25.348-.445v3.455H75.82a1.572,1.572,0,0,1,0,3.145Z" transform="translate(-23.427 -223.124)"/></g><g transform="translate(79.029 91.335)"><path class="a" d="M732.729,725.665h-.462a1.572,1.572,0,0,1,0-3.145h.462a1.572,1.572,0,1,1,0,3.145Z" transform="translate(-730.695 -722.52)"/></g><g transform="translate(23.426 37.48)"><path class="a" d="M81.064,88.786a1.572,1.572,0,0,1-1.112-.461A18.364,18.364,0,0,0,59.629,84.55a1.572,1.572,0,1,1-1.277-2.874,21.418,21.418,0,0,1,21.139,2.146v-38.3a18.272,18.272,0,0,0-25.348.445,1.572,1.572,0,0,1-2.224,0,18.272,18.272,0,0,0-25.348-.445V78.8a1.572,1.572,0,0,1-3.145,0V44.858a1.572,1.572,0,0,1,.461-1.112,21.4,21.4,0,0,1,29.144-1.037A21.238,21.238,0,0,1,67.047,37.48h0a21.255,21.255,0,0,1,15.128,6.266,1.573,1.573,0,0,1,.46,1.112V87.213a1.572,1.572,0,0,1-1.572,1.572Z" transform="translate(-23.426 -37.48)"/></g><g transform="translate(29.321 48.471)"><g transform="translate(15.766 1.53)"><path class="a" d="M301.006,200.1a1.566,1.566,0,0,1-.642-.138c-.144-.065-.291-.128-.437-.189a1.572,1.572,0,0,1,1.211-2.9c.171.071.343.146.512.222a1.573,1.573,0,0,1-.644,3.007Z" transform="translate(-298.959 -196.749)"/></g><g transform="translate(0 0)"><path class="a" d="M99.984,182.173a1.573,1.573,0,0,1-.645-3.007,21.384,21.384,0,0,1,12.041-1.621,1.572,1.572,0,0,1-.479,3.108,18.246,18.246,0,0,0-10.274,1.382A1.566,1.566,0,0,1,99.984,182.173Z" transform="translate(-98.41 -177.292)"/></g><g transform="translate(5.082 10.993)"><path class="a" d="M175.785,322.007a1.565,1.565,0,0,1-.643-.138,18.246,18.246,0,0,0-10.276-1.382,1.572,1.572,0,0,1-.48-3.108A21.384,21.384,0,0,1,176.429,319a1.573,1.573,0,0,1-.645,3.007Z" transform="translate(-163.053 -317.126)"/></g><g transform="translate(0 12.523)"><path class="a" d="M99.984,339.93a1.573,1.573,0,0,1-.645-3.007c.171-.077.344-.152.515-.223a1.572,1.572,0,0,1,1.211,2.9c-.145.061-.293.124-.438.19A1.565,1.565,0,0,1,99.984,339.93Z" transform="translate(-98.41 -336.578)"/></g><g transform="translate(15.768 23.517)"><path class="a" d="M301.019,479.774a1.565,1.565,0,0,1-.643-.138c-.144-.065-.291-.128-.435-.189a1.572,1.572,0,0,1,1.211-2.9c.17.071.342.146.512.222a1.573,1.573,0,0,1-.645,3.007Z" transform="translate(-298.974 -476.423)"/></g><g transform="translate(0 21.987)"><path class="a" d="M99.986,461.842a1.573,1.573,0,0,1-.645-3.007,21.382,21.382,0,0,1,12.045-1.62,1.572,1.572,0,0,1-.48,3.108,18.245,18.245,0,0,0-10.277,1.381A1.568,1.568,0,0,1,99.986,461.842Z" transform="translate(-98.412 -456.961)"/></g></g><g transform="translate(57.354 48.471)"><g transform="translate(0 1.53)"><path class="a" d="M456.565,200.1a1.573,1.573,0,0,1-.644-3.007c.169-.076.341-.15.512-.222a1.572,1.572,0,0,1,1.211,2.9c-.146.061-.293.124-.437.189A1.567,1.567,0,0,1,456.565,200.1Z" transform="translate(-454.992 -196.749)"/></g><g transform="translate(5.084 0)"><path class="a" d="M532.384,182.172a1.566,1.566,0,0,1-.643-.138,18.245,18.245,0,0,0-10.274-1.382,1.572,1.572,0,0,1-.479-3.108,21.384,21.384,0,0,1,12.041,1.621,1.573,1.573,0,0,1-.645,3.007Z" transform="translate(-519.654 -177.291)"/></g><g transform="translate(0 10.993)"><path class="a" d="M456.562,322.007a1.573,1.573,0,0,1-.645-3.007,21.383,21.383,0,0,1,12.043-1.62,1.572,1.572,0,1,1-.479,3.108,18.246,18.246,0,0,0-10.276,1.382A1.566,1.566,0,0,1,456.562,322.007Z" transform="translate(-454.989 -317.126)"/></g><g transform="translate(15.765 12.523)"><path class="a" d="M657.566,339.93a1.565,1.565,0,0,1-.643-.138c-.146-.065-.293-.129-.438-.19a1.572,1.572,0,1,1,1.211-2.9c.171.071.344.146.515.223a1.573,1.573,0,0,1-.645,3.007Z" transform="translate(-655.517 -336.579)"/></g><g transform="translate(0 23.517)"><path class="a" d="M456.565,479.774a1.573,1.573,0,0,1-.645-3.007c.17-.076.342-.151.512-.222a1.572,1.572,0,0,1,1.211,2.9c-.145.06-.291.124-.435.189A1.567,1.567,0,0,1,456.565,479.774Z" transform="translate(-454.991 -476.423)"/></g><g transform="translate(5.08 21.987)"><path class="a" d="M532.344,461.842a1.567,1.567,0,0,1-.643-.138,18.244,18.244,0,0,0-10.277-1.381,1.572,1.572,0,0,1-.48-3.108,21.382,21.382,0,0,1,12.045,1.62,1.573,1.573,0,0,1-.645,3.007Z" transform="translate(-519.612 -456.961)"/></g></g></g></svg>