<svg xmlns="http://www.w3.org/2000/svg" width="78" height="78" viewBox="0 0 78 78"><defs><style>.a{fill:#4d0506;}</style></defs><g transform="translate(0 0)"><path class="a" d="M77.616.378A1.3,1.3,0,0,0,75.822.341L44.915,28.672A5.123,5.123,0,0,0,44.2,28.6a5.2,5.2,0,0,0-5.18,5.005L33,39.05c-.166-.013-.326-.05-.5-.05a6.5,6.5,0,0,0-6.486,6.359l-5.941,5.37c-.19-.014-.38-.029-.573-.029a7.8,7.8,0,0,0-7.789,7.587L8.228,61.436A1.3,1.3,0,0,0,7.8,62.4a7.143,7.143,0,0,1-6.5,6.5A1.3,1.3,0,0,0,.381,71.12l6.5,6.5A1.3,1.3,0,0,0,9.1,76.7a7.143,7.143,0,0,1,6.5-6.5,1.3,1.3,0,0,0,.964-.428l3.148-3.483A7.8,7.8,0,0,0,27.3,58.5c0-.194-.015-.383-.029-.573l5.369-5.941A6.5,6.5,0,0,0,39,45.5c0-.17-.037-.329-.05-.5l5.445-6.024A5.2,5.2,0,0,0,49.4,33.8c0-.117-.027-.226-.035-.342l28.3-31.287A1.3,1.3,0,0,0,77.616.378ZM15,67.626a9.975,9.975,0,0,0-8.015,6.421L3.953,71.016A9.973,9.973,0,0,0,10.375,63l1.861-1.682a7.83,7.83,0,0,0,4.446,4.446ZM19.5,63.7a5.2,5.2,0,1,1,5.2-5.2A5.2,5.2,0,0,1,19.5,63.7Zm3.536-12.144,3.617-3.269a6.512,6.512,0,0,0,3.06,3.06l-3.269,3.617a7.842,7.842,0,0,0-3.408-3.408ZM32.5,49.4a3.9,3.9,0,1,1,3.9-3.9A3.9,3.9,0,0,1,32.5,49.4Zm3.361-9.435,3.889-3.516a5.206,5.206,0,0,0,1.8,1.8l-3.516,3.889a6.513,6.513,0,0,0-2.174-2.174ZM44.2,36.4a2.6,2.6,0,1,1,2.6-2.6,2.6,2.6,0,0,1-2.6,2.6Zm4.152-5.7a5.216,5.216,0,0,0-.843-.88l9.6-8.8Z" transform="translate(0 0)"/></g></svg>